<svg data-v-fde0c5aa="" xmlns="http://www.w3.org/2000/svg" viewBox="100 50" class="iconLeft"><!----><defs data-v-fde0c5aa=""><!----></defs><rect data-v-fde0c5aa="" fill="#F3F3EF" x="0" y="0" width="100px" height="100px" class="logo-background-square"></rect><defs data-v-fde0c5aa=""><!----></defs><g data-v-fde0c5aa="" id="06d0abe3-9c6a-47b5-b1af-651e1c16ce5d" fill="#2A2F1F" transform="matrix(2.022833561633621,0,0,2.022833561633621,123.4384994611849,135.31422836183117)"><path d="M0.28 3.21L2.80 3.21L2.80 12.60L3.22 12.60L3.22 3.21L5.74 3.21L5.74 2.80L0.28 2.80ZM8.82 6.96L9.07 6.57C8.71 6.22 8.35 6.05 8.01 6.05C7.22 6.05 6.72 6.51 6.51 7.43L6.51 6.16L6.09 6.16L6.09 12.60L6.51 12.60L6.51 8.68C6.51 8.17 6.64 7.68 6.89 7.21C7.14 6.74 7.46 6.51 7.85 6.51C8.27 6.51 8.60 6.66 8.82 6.96ZM10.30 7.32C10.68 7.03 11.03 6.81 11.35 6.66C11.67 6.51 12.07 6.44 12.54 6.44C13.68 6.44 14.25 6.95 14.25 7.98L14.25 9.13C13.76 8.82 13.13 8.67 12.38 8.67C11.69 8.67 11.09 8.85 10.59 9.21C10.09 9.56 9.84 10.07 9.84 10.71C9.84 11.39 10.05 11.90 10.47 12.24C10.89 12.57 11.40 12.74 11.98 12.74C12.58 12.74 13.08 12.61 13.48 12.35C13.87 12.09 14.13 11.74 14.25 11.31L14.25 12.60L14.67 12.60L14.67 7.98C14.67 7.34 14.50 6.85 14.17 6.52C13.83 6.19 13.29 6.02 12.54 6.02C12.18 6.02 11.83 6.07 11.50 6.18C11.17 6.29 10.92 6.40 10.75 6.50C10.57 6.61 10.35 6.76 10.08 6.96ZM10.28 10.71C10.28 10.20 10.47 9.79 10.87 9.50C11.27 9.21 11.77 9.06 12.38 9.06C13.05 9.06 13.67 9.23 14.25 9.56L14.25 10.36C14.25 10.94 14.03 11.41 13.59 11.79C13.16 12.16 12.64 12.35 12.05 12.35C11.49 12.35 11.06 12.21 10.75 11.93C10.43 11.65 10.28 11.24 10.28 10.71ZM15.79 6.16L18.59 12.95L21.39 6.16L20.90 6.16L18.59 12.01L16.28 6.16ZM27.47 9.06L22.62 9.06C22.64 8.38 22.89 7.77 23.37 7.25C23.85 6.73 24.43 6.47 25.12 6.47C25.80 6.47 26.36 6.72 26.80 7.24C27.23 7.75 27.46 8.36 27.47 9.06ZM22.60 9.48L27.90 9.48C27.91 9.43 27.92 9.38 27.92 9.32C27.92 8.33 27.66 7.53 27.14 6.94C26.62 6.34 25.95 6.05 25.12 6.05C24.27 6.05 23.56 6.36 23.00 6.99C22.44 7.61 22.16 8.41 22.16 9.38C22.16 10.33 22.46 11.13 23.04 11.76C23.63 12.39 24.32 12.71 25.12 12.71C26.35 12.71 27.27 12.13 27.87 10.96L27.51 10.74C26.97 11.76 26.18 12.28 25.14 12.28C24.45 12.28 23.86 12.01 23.37 11.47C22.87 10.92 22.61 10.26 22.60 9.48ZM29.74 1.68L29.74 12.60L30.16 12.60L30.16 1.68ZM36.71 7.70C36.71 6.33 37.09 5.22 37.85 4.38C38.61 3.53 39.62 3.11 40.87 3.11C42.06 3.11 43.11 3.54 44.02 4.41L44.02 3.81C43.17 3.06 42.12 2.69 40.87 2.69C39.51 2.69 38.40 3.16 37.54 4.09C36.68 5.03 36.25 6.23 36.25 7.70C36.25 9.17 36.68 10.37 37.54 11.30C38.40 12.24 39.51 12.71 40.87 12.71C42.12 12.71 43.17 12.34 44.02 11.59L44.02 11.03C43.15 11.87 42.10 12.29 40.87 12.29C39.62 12.29 38.61 11.87 37.85 11.03C37.09 10.18 36.71 9.07 36.71 7.70ZM49.06 6.96L49.31 6.57C48.94 6.22 48.59 6.05 48.24 6.05C47.46 6.05 46.96 6.51 46.75 7.43L46.75 6.16L46.33 6.16L46.33 12.60L46.75 12.60L46.75 8.68C46.75 8.17 46.87 7.68 47.12 7.21C47.38 6.74 47.70 6.51 48.09 6.51C48.51 6.51 48.83 6.66 49.06 6.96ZM50.54 7.32C50.91 7.03 51.26 6.81 51.58 6.66C51.90 6.51 52.30 6.44 52.78 6.44C53.92 6.44 54.49 6.95 54.49 7.98L54.49 9.13C53.99 8.82 53.37 8.67 52.61 8.67C51.92 8.67 51.33 8.85 50.83 9.21C50.33 9.56 50.08 10.07 50.08 10.71C50.08 11.39 50.29 11.90 50.71 12.24C51.13 12.57 51.63 12.74 52.22 12.74C52.82 12.74 53.31 12.61 53.71 12.35C54.11 12.09 54.37 11.74 54.49 11.31L54.49 12.60L54.91 12.60L54.91 7.98C54.91 7.34 54.74 6.85 54.40 6.52C54.07 6.19 53.53 6.02 52.78 6.02C52.42 6.02 52.07 6.07 51.74 6.18C51.41 6.29 51.15 6.40 50.98 6.50C50.81 6.61 50.59 6.76 50.32 6.96ZM50.51 10.71C50.51 10.20 50.71 9.79 51.11 9.50C51.50 9.21 52.01 9.06 52.61 9.06C53.28 9.06 53.91 9.23 54.49 9.56L54.49 10.36C54.49 10.94 54.27 11.41 53.83 11.79C53.39 12.16 52.88 12.35 52.29 12.35C51.73 12.35 51.29 12.21 50.98 11.93C50.67 11.65 50.51 11.24 50.51 10.71ZM59.65 2.55L59.92 2.24C59.58 1.79 59.19 1.57 58.73 1.57C57.72 1.57 57.22 2.31 57.22 3.78L57.22 6.16L56.59 6.16L56.59 6.58L57.22 6.58L57.22 12.60L57.64 12.60L57.64 6.58L59.32 6.58L59.32 6.16L57.64 6.16L57.64 3.78C57.64 2.60 58.00 2.02 58.73 2.02C59.07 2.02 59.37 2.19 59.65 2.55ZM61.04 3.92L61.04 6.16L59.99 6.16L59.99 6.58L61.04 6.58L61.04 12.60L61.46 12.60L61.46 6.58L62.51 6.58L62.51 6.16L61.46 6.16L61.46 3.92ZM63.70 10.50L63.28 10.58C63.39 11.16 63.65 11.66 64.04 12.08C64.44 12.50 64.95 12.71 65.56 12.71C66.13 12.71 66.60 12.56 66.96 12.24C67.33 11.93 67.51 11.50 67.51 10.96C67.51 9.99 66.92 9.34 65.74 9.00C65.23 8.85 64.83 8.68 64.55 8.47C64.27 8.26 64.13 7.98 64.13 7.63C64.13 7.28 64.26 7.00 64.52 6.79C64.78 6.58 65.12 6.48 65.56 6.48C66.27 6.48 66.79 6.86 67.12 7.63L67.49 7.45C67.17 6.51 66.52 6.05 65.55 6.05C65.02 6.05 64.57 6.19 64.20 6.47C63.84 6.75 63.66 7.14 63.66 7.64C63.66 7.90 63.70 8.12 63.80 8.31C63.89 8.50 64.04 8.66 64.24 8.80C64.44 8.93 64.63 9.04 64.81 9.12C64.99 9.20 65.24 9.29 65.55 9.39C66.06 9.57 66.44 9.78 66.68 10.01C66.92 10.24 67.05 10.57 67.05 11.00C67.05 11.38 66.92 11.68 66.65 11.92C66.39 12.16 66.02 12.28 65.55 12.28C65.03 12.28 64.60 12.09 64.28 11.71C63.96 11.33 63.77 10.93 63.70 10.50Z"></path></g><defs data-v-fde0c5aa=""><linearGradient data-v-fde0c5aa="" gradientTransform="rotate(25)" id="8260dfe7-be64-4abd-b350-37a25ba4f0f8" x1="0%" y1="0%" x2="100%" y2="0%"><stop data-v-fde0c5aa="" offset="0%" stop-color="#945069" stop-opacity="1"></stop><stop data-v-fde0c5aa="" offset="100%" stop-color="#86C866" stop-opacity="1"></stop></linearGradient></defs><g data-v-fde0c5aa="" id="9d4c1ad0-4949-41c6-91cc-1d7a4179b763" stroke="none" fill="url(#8260dfe7-be64-4abd-b350-37a25ba4f0f8)" transform="matrix(0.9726697652171743,0,0,0.9726697652171743,32.2186418782626,107.93202894391652)"><path d="M25.8 41.9c0-4.9-4-8.9-8.9-8.9S8 37 8 41.9c0 1.5.4 3 1.1 4.3L17 59.9l7.9-13.7c.5-1.3.9-2.7.9-4.3zm-9 3.2c-1.9 0-3.4-1.5-3.4-3.4s1.5-3.4 3.4-3.4 3.4 1.5 3.4 3.4-1.5 3.4-3.4 3.4zM81 41.9c0-4.9-4-8.9-8.9-8.9s-8.9 4-8.9 8.9c0 1.5.4 3 1.1 4.3l7.9 13.7L80 46.2c.7-1.3 1-2.7 1-4.3zm-8.9 3.2c-1.9 0-3.4-1.5-3.4-3.4s1.5-3.4 3.4-3.4 3.4 1.5 3.4 3.4-1.5 3.4-3.4 3.4z"></path><g clip-rule="evenodd"><path d="M33.7 40.5h-1c-.2 0-.4 0-.5-.1-.2-.1-.2-.4-.4-.5.2-.1.3-.2.5-.3.4-.1.9-.1 1.3-.2l-1.2-2.1c-.3-.5-.6-1-.9-1.6-.2-.5-.1-.6.4-.6h1.2c.5 0 .8.2 1.1.5.6.9 1.3 1.7 1.9 2.6.1.1.3.2.4.2 2.3-.2 4.5-.4 6.8-.5 0 0 .1 0 .1-.1-.1-.6-.3-1.2-.4-1.8-.8-3.4-1.6-6.7-2.5-10.1-.1-.3 0-.4.3-.4 1.2 0 2 .5 2.5 1.6 1.5 2.7 3 5.5 4.5 8.2.3.6.7 1.2 1 1.8.1.2.2.3.5.3 2.1-.2 4.2-.2 6.3.3.6.1 1.2.4 1.7.8.7.5.7 1.2 0 1.7-.6.4-1.3.7-1.9.9-1.6.5-3.2.5-4.9.5-4.3.1-8.5-.2-12.8-.4h-.5c-.5-.1-.9.1-1.1.5-.4.7-.9 1.4-1.4 2.1-.4.6-.9.9-1.6.8-.2 0-.5 0-.7-.1-.5-.1-.6-.3-.4-.8.5-1 1-1.9 1.5-2.9.1 0 .1-.2.2-.3z"></path><path d="M48.9 42.8c-1 2-1.9 4-2.8 6-.6 1.3-1.2 2.5-1.8 3.8-.4 1-1.7 1.4-2.4 1.4-.4 0-.5-.2-.5-.6.1-.4.2-.7.2-1.1.6-3.1 1.3-6.2 1.9-9.4 0-.1 0-.2.1-.3 1.7.1 3.5.2 5.3.2z"></path></g><path d="M68.7 61h-5.4v-2.4h5.4V61zm-10.8 0h-5.4v-2.4h5.4V61zm-10.7 0h-5.4v-2.4h5.4V61zm-10.8 0H31v-2.4h5.4V61zm-10.8 0h-5.4v-2.4h5.4V61z"></path></g><!----></svg>